<svg width="48" height="48" viewBox="0 0 48 48" fill="none" xmlns="http://www.w3.org/2000/svg">
<rect x="6" y="16" width="16" height="16" rx="8" fill="white"/>
<path d="M14 18C17.3137 18 20 20.6863 20 24C20 27.3137 17.3137 30 14 30V18Z" fill="#181818"/>
<path d="M15 23C14.4477 22.4477 13.5523 22.4477 13 23C12.4477 23.5523 12.4477 24.4477 13 25C13.5523 25.5523 14.4477 25.5523 15 25C15.5523 24.4477 15.5523 23.5523 15 23Z" fill="white"/>
<rect x="26" y="16" width="16" height="16" rx="8" fill="white"/>
<path d="M34 18C37.3137 18 40 20.6863 40 24C40 27.3137 37.3137 30 34 30V18Z" fill="#181818"/>
<path d="M35 23C34.4477 22.4477 33.5523 22.4477 33 23C32.4477 23.5523 32.4477 24.4477 33 25C33.5523 25.5523 34.4477 25.5523 35 25C35.5523 24.4477 35.5523 23.5523 35 23Z" fill="white"/>
</svg>
