<svg width="36" height="16" viewBox="0 0 36 16" fill="none" xmlns="http://www.w3.org/2000/svg">
<rect width="16" height="16" rx="8" fill="white"/>
<path d="M8 2V2C11.3137 2 14 4.68629 14 8V8C14 11.3137 11.3137 14 8 14V14V2Z" fill="#181818"/>
<path d="M9 7C8.44772 6.44772 7.55228 6.44772 7 7C6.44772 7.55228 6.44772 8.44772 7 9C7.55228 9.55228 8.44772 9.55228 9 9C9.55228 8.44772 9.55228 7.55228 9 7Z" fill="white"/>
<rect x="20" width="16" height="16" rx="8" fill="white"/>
<path d="M28 2V2C31.3137 2 34 4.68629 34 8V8C34 11.3137 31.3137 14 28 14V14V2Z" fill="#181818"/>
<path d="M29 7C28.4477 6.44772 27.5523 6.44772 27 7C26.4477 7.55228 26.4477 8.44772 27 9C27.5523 9.55228 28.4477 9.55228 29 9C29.5523 8.44772 29.5523 7.55228 29 7Z" fill="white"/>
</svg>
